<svg id="eDowZf7V21T1" xmlns="http://www.w3.org/2000/svg" xmlns:xlink="http://www.w3.org/1999/xlink" viewBox="0 0 512 512" shape-rendering="geometricPrecision" text-rendering="geometricPrecision"><g><path d="M221.406,138.375c-43.425,0-84.079628-9.148148-21.097628-9.150148c43.426-.002,84.082628,9.148148,21.098628,9.150148h-.001Zm136.688,17.438c-43.147,0-46.965491-31.719-102.094-17.438-83.55-2.5-40.969,17.438-116.837777,25.648497s-46.510011,42.5428-68.410661,52.590696-100.509562,88.605807,33.278438,107.980807c5.662.822,6.792,4.934,4.095,7.594-32.494,32.043,38.39,55.5,143.656,55.5c107.528,0,116.15707-28.408,199.937-28.408s-54.659469-33.746-45.646469-34.686c142.247-14.794,58.428969-44.669869,68.527518-87.584272s-21.444049-26.072433-33.659777-36.897688C516.011929,186.220784,459.061,143.357776,358.095,155.813h-.001Zm93.625,203.28c-35.633.655-53.357,24.423,1.436,28.22c40.297,2.792,64.353-23.978,5.906-28.032-2.518-.173-4.968-.23-7.343-.186l.001-.002ZM107.374,399.406c-61.332016,30.213256-78.563089,49.344,0,49.344c68.37-.002,23.785163-61.061,0-49.344Z" stroke="#000" stroke-width="16.896"/><path d="M221.406,138.375c-43.425,0-84.079628-9.148148-21.097628-9.150148c43.426-.002,84.082628,9.148148,21.098628,9.150148h-.001Zm136.688,17.438c-43.147,0-46.965491-31.719-102.094-17.438-83.55-2.5-40.969,17.438-116.837777,25.648497s-46.510011,42.5428-68.410661,52.590696-100.509562,88.605807,33.278438,107.980807c5.662.822,6.792,4.934,4.095,7.594-32.494,32.043,38.39,55.5,143.656,55.5c107.528,0,116.15707-28.408,199.937-28.408s-54.659469-33.746-45.646469-34.686c142.247-14.794,58.428969-44.669869,68.527518-87.584272s-21.444049-26.072433-33.659777-36.897688C516.011929,186.220784,459.061,143.357776,358.095,155.813h-.001Zm93.625,203.28c-35.633.655-53.357,24.423,1.436,28.22c40.297,2.792,64.353-23.978,5.906-28.032-2.518-.173-4.968-.23-7.343-.186l.001-.002ZM107.374,399.406c-61.332016,30.213256-78.563089,49.344,0,49.344c68.37-.002,23.785163-61.061,0-49.344Z" transform="matrix(1 0 0 1.121799 0-35.755619)" stroke="#000" stroke-width="16.896"/><path d="M-34.233621,0c0-7.68085,11.493709-27.536647,21.990853-23.12246c5.455957,2.294302,43.068477,5.342737,30.703278,7.575419C9.165352,-10.632209,34.233621,-6.678945,34.233621,0C34.233621,13.907409,13.601012,41.880441,0,25.012552s-34.233621,0-34.233621-25.012552Z" transform="translate(356.252974 404.255891)" stroke-width="0"/><path d="M-34.233621,0c0-7.68085,23.736477-18.321596,34.233621-13.907409s34.233621,0,34.233621,13.907409-20.632609,41.880441-34.233621,25.012552-34.233621,0-34.233621-25.012552Z" transform="matrix(-.228505 0.376652-.376367-.228332 67.154833 348.133767)" stroke-width="0"/><path d="M-34.233621,0c0-7.68085,23.736477-18.321596,34.233621-13.907409s34.233621,0,34.233621,13.907409-20.632609,41.880441-34.233621,25.012552-34.233621,0-34.233621-25.012552Z" transform="matrix(.174889-.42531 0.816841 0.335887 349.997281 84.48541)" stroke-width="0"/><path d="M-34.233621,0c0-7.68085,23.736477-18.321596,34.233621-13.907409s34.233621,0,34.233621,13.907409-20.632609,41.880441-34.233621,25.012552-34.233621,0-34.233621-25.012552Z" transform="matrix(-.801479 0.598023-.598023-.801479 69.535634 93.195816)" stroke-width="0"/></g></svg>
