<svg id="eQE2rX1Upy91" xmlns="http://www.w3.org/2000/svg" xmlns:xlink="http://www.w3.org/1999/xlink" viewBox="0 0 300 300" shape-rendering="geometricPrecision" text-rendering="geometricPrecision"><path d="M67.502288,-64.189665c0,0-81.851282-13.430152-97.210761-.305836-7.518431,6.424324,23.566388,9.269377,47.79429,27.80814s30.527629,36.191734,23.480701,41.92788c-13.803913,11.236281-71.274987-24.899616-71.27499-11.236281s27.903652,32.575578,23.566385,36.575752-36.183913-7.203982-52.352124,20.512953" transform="matrix(1.464974 0 0 1.464974 143.401701 164.032497)" fill="none" stroke="#3f5787" stroke-width="3" stroke-linecap="round"/><path d="" transform="matrix(1.464974 0 0 1.464974 161.24689 146.040083)" fill="none" stroke="#3f5787" stroke-width="3" stroke-linecap="round"/><line x1="0" y1="10.004762" x2="0" y2="-10.004762" transform="matrix(-1.459675 0 0 1.732237 57.709202 220.889915)" fill="none" stroke="#3f5787" stroke-width="3" stroke-linecap="round"/><line x1="0" y1="10.004762" x2="0" y2="-10.004762" transform="matrix(-.02787-1.459409-1.731921 0.033074 75.55439 238.551432)" fill="none" stroke="#3f5787" stroke-width="3" stroke-linecap="round"/></svg>
